<?xml version="1.0" encoding="UTF-8"?>
<svg version="1.1" xmlns="http://www.w3.org/2000/svg" width="1754" height="1241">
<path d="M0 0 C0.79688232 0.33563965 1.59376465 0.6712793 2.41479492 1.01708984 C6.3816514 2.85782382 7.80870575 3.63978412 9.59375 7.7890625 C17.84063778 63.45555504 5.1959913 126.19857016 -19.00195312 176.55126953 C-19.83086595 178.28280723 -20.62733865 180.02976506 -21.421875 181.77734375 C-28.25480607 196.34324251 -38.96382495 207.16303067 -53.9765625 213.37890625 C-76.79894232 221.22217694 -96.77180589 216.55218709 -117.69091797 206.44824219 C-137.57038462 196.67961538 -137.57038462 196.67961538 -143.875 190.375 C-144.44903086 187.27653798 -144.4622505 184.47235663 -143.875 181.375 C-141.54535161 178.70442746 -139.78817522 177.29132308 -136.875 175.375 C-135.781875 174.63636719 -134.68875 173.89773438 -133.5625 173.13671875 C-131.00195287 171.41582934 -128.42962319 169.71404605 -125.8515625 168.01953125 C-120.87242181 164.73039086 -116.01395682 161.28898953 -111.20703125 157.75390625 C-109.11233749 156.22230871 -107.07607033 154.9075085 -104.82421875 153.58984375 C-84.11534267 140.67079655 -72.47603398 106.20787807 -67.1328125 83.17578125 C-64.65049346 70.16910957 -64.3892976 56.06938512 -71.625 44.5 C-78.69394359 34.9483055 -88.56711182 29.90752774 -100.2265625 27.71875 C-135.55271816 23.13364425 -169.65308706 37.86669174 -200.18359375 54.734375 C-204.58856724 57.08427227 -207.75943791 57.84350445 -212.875 57.375 C-216.25531589 56.18732145 -216.80716817 55.47674775 -218.875 52.375 C-219.13439612 49.75992515 -219.25569838 47.30505107 -219.25 44.6875 C-219.24758301 43.51828003 -219.24758301 43.51828003 -219.24511719 42.32543945 C-218.82475735 21.18175192 -214.93423948 -2.07431122 -200.0625 -17.9375 C-154.25163651 -61.1003367 -48.65324705 -21.67046983 0 0 Z " fill="#FCD306" transform="translate(342.875,537.625)"/>
<path d="M0 0 C1 1 1 1 1.0625 3.5625 C1.041875 4.366875 1.02125 5.17125 1 6 C-0.03253906 5.9278125 -1.06507813 5.855625 -2.12890625 5.78125 C-44.07209754 3.03575335 -86.00967553 7.63056772 -126.6875 18.125 C-127.62529297 18.36645752 -128.56308594 18.60791504 -129.52929688 18.85668945 C-134.57852014 20.20625782 -139.20253879 21.90371804 -144 24 C-146.83565567 25.00164817 -149.68658458 25.95166325 -152.5390625 26.90429688 C-171.66340977 33.30570429 -190.62243594 40.58801709 -208.30859375 50.359375 C-212.71356724 52.70927227 -215.88443791 53.46850445 -221 53 C-224.38031589 51.81232145 -224.93216817 51.10174775 -227 48 C-227.25939612 45.38492515 -227.38069838 42.93005107 -227.375 40.3125 C-227.37258301 39.14328003 -227.37258301 39.14328003 -227.37011719 37.95043945 C-226.94975735 16.80675192 -223.05923948 -6.44931122 -208.1875 -22.3125 C-161.10978573 -66.66895911 -48.69299573 -24.98792908 0 0 Z " fill="#8B181A" transform="translate(351,542)"/>
<path d="M0 0 C3.22444254 1.07481418 3.83274667 1.67572058 5.9375 4.1875 C6.55238281 4.91453125 7.16726563 5.6415625 7.80078125 6.390625 C8.88939453 7.68226563 8.88939453 7.68226563 10 9 C10.88752262 10.0171986 11.77696494 11.03272432 12.66796875 12.046875 C20.54224495 21.04737432 27.86351421 30.40703839 35 40 C35.54301758 40.72735352 36.08603516 41.45470703 36.64550781 42.20410156 C82.13992329 103.37692523 82.13992329 103.37692523 80 127 C78.64581396 135.25904673 73.80515254 140.28084972 68 146 C67.09894531 146.88816406 66.19789063 147.77632812 65.26953125 148.69140625 C50.27767916 162.91444541 21.63274435 188 0 188 C0.59662335 183.12757596 1.56106793 178.44906301 2.71386719 173.67919922 C15.23641006 121.74856539 12.30440075 65.66622496 -3.2590332 14.68383789 C-5.54115296 7.02713336 -5.54115296 7.02713336 -4 3 C-2.125 1.125 -2.125 1.125 0 0 Z " fill="#9A998A" transform="translate(380,555)"/>
<path d="M0 0 C3.41106871 2.74815116 6.64582318 5.67300271 9.8515625 8.65625 C10.42165039 9.18250977 10.99173828 9.70876953 11.57910156 10.25097656 C31.53943462 28.87393387 53.96543758 57.42999092 59.8515625 84.65625 C58.4419278 85.35805531 57.02348609 86.04218958 55.6015625 86.71875 C54.81265625 87.10160156 54.02375 87.48445312 53.2109375 87.87890625 C50.47587839 88.78002672 49.53686809 88.5483855 46.8515625 87.65625 C45.16674805 86.67578125 45.16674805 86.67578125 43.48828125 85.46875 C42.85720459 85.02217041 42.22612793 84.57559082 41.57592773 84.11547852 C40.90376221 83.63393311 40.23159668 83.1523877 39.5390625 82.65625 C-4.99383643 51.50692188 -55.75198316 34.7669195 -109.1484375 26.65625 C-101.92155268 10.80902067 -72.28422416 -1.62122669 -56.6953125 -7.6875 C-37.26653626 -14.38707801 -16.71020606 -12.43935935 0 0 Z " fill="#9A998A" transform="translate(295.1484375,425.34375)"/>
<path d="M0 0 C8.25 0 16.5 0 25 0 C31.55908559 7.18708315 31.55908559 7.18708315 32.96484375 10.59765625 C35.01818058 15.18836714 37.63799025 19.20956923 40.4375 23.375 C41.36903324 24.81176607 42.29741061 26.25058307 43.22265625 27.69140625 C45.48746218 31.2055416 47.75536923 34.71764618 50.02636719 38.2277832 C50.92732451 39.62048317 51.82771294 41.01355132 52.72753906 42.40698242 C55.23665092 46.28934844 57.76033728 50.16149043 60.30078125 54.0234375 C61.14600342 55.31254028 61.14600342 55.31254028 62.00830078 56.62768555 C63.0801127 58.26158319 64.15499846 59.89347138 65.23388672 61.52270508 C69.82962372 68.53968608 73.81022478 75.66789336 78 83 C78 55.61 78 28.22 78 0 C84.93 0 91.86 0 99 0 C99 37.29 99 74.58 99 113 C90.42 113 81.84 113 73 113 C64.8334854 103.22810219 64.8334854 103.22810219 62.79296875 98.703125 C60.12851492 93.13053457 56.94459697 88.11650906 53.5 83 C52.42025111 81.34435244 51.34343365 79.68678948 50.26953125 78.02734375 C48.0420791 74.60003022 45.80970554 71.1759841 43.57421875 67.75390625 C35.69283712 55.6801803 28.00675345 43.61215621 21 31 C20.67 58.06 20.34 85.12 20 113 C13.4 113 6.8 113 0 113 C0 75.71 0 38.42 0 0 Z " fill="#231F20" transform="translate(1064,445)"/>
<path d="M0 0 C8.25 0 16.5 0 25 0 C32.53587368 8.65229941 32.53587368 8.65229941 34.38671875 12.73046875 C37.01233869 18.16428152 40.20399986 23.05862235 43.5625 28.0625 C44.65947828 29.7479032 45.75326233 31.43539 46.84375 33.125 C48.84070776 36.21032404 50.84021937 39.29394029 52.84375 42.375 C57.72729876 49.89129748 62.57097927 57.43261108 67.375 65 C68.10698608 66.14770874 68.10698608 66.14770874 68.85375977 67.31860352 C69.32225342 68.05908936 69.79074707 68.7995752 70.2734375 69.5625 C70.67997559 70.20316406 71.08651367 70.84382812 71.50537109 71.50390625 C73.76643602 75.27998071 75.8625557 79.15260026 78 83 C78 55.61 78 28.22 78 0 C84.93 0 91.86 0 99 0 C99 37.29 99 74.58 99 113 C90.42 113 81.84 113 73 113 C65.80934825 104.6923538 65.80934825 104.6923538 64.21484375 100.8359375 C62.11155664 96.10942845 59.51226499 91.96773924 56.625 87.6875 C55.70809335 86.27658383 54.79407777 84.86378507 53.8828125 83.44921875 C51.31234561 79.47982811 48.73606376 75.51423801 46.15795898 71.54980469 C45.05540545 69.85416795 43.95335205 68.15820589 42.85180664 66.46191406 C40.22376756 62.4154002 37.59028131 58.37275389 34.94140625 54.33984375 C34.45542969 53.59669922 33.96945312 52.85355469 33.46875 52.08789062 C32.57494946 50.72112063 31.67815067 49.35630307 30.77734375 47.99414062 C27.16414711 42.45504201 24.20092147 36.86835602 21 31 C20.67 58.06 20.34 85.12 20 113 C13.4 113 6.8 113 0 113 C0 75.71 0 38.42 0 0 Z " fill="#231F20" transform="translate(659,445)"/>
<path d="M0 0 C72.41885246 0 72.41885246 0 88.25 14.5 C100.05738032 27.05824711 103.71635049 43.40579512 103.27734375 60.24609375 C102.12918023 75.78672961 97.57304269 90.02172734 85.859375 100.8125 C61.32638644 119.58090655 29.14677448 113 0 113 C0 75.71 0 38.42 0 0 Z M22 18 C22 43.41 22 68.82 22 95 C48.1566705 96.43791014 48.1566705 96.43791014 70 86 C78.85708057 76.83350177 80.41537444 65.14783982 80.21875 52.86328125 C79.91913527 47.57187112 78.8423975 42.95293874 77 38 C76.73316406 37.27167969 76.46632813 36.54335938 76.19140625 35.79296875 C72.69849049 27.67388012 66.05147587 23.0248911 58.078125 19.7265625 C45.91300596 15.47334419 37.56824837 18 22 18 Z " fill="#231F20" transform="translate(794,445)"/>
<path d="M0 0 C11.18271451 8.73881002 16.86073886 22.74191336 18.73828125 36.48046875 C20.26333362 53.57376408 18.60985077 72.08899844 7.515625 85.89453125 C-1.95374302 96.89679958 -14.34543358 104.23530251 -28.98046875 105.6328125 C-46.70369074 106.72672964 -63.62993559 104.62024524 -77.79296875 92.9453125 C-89.87589835 81.45339576 -94.83885195 66.07362994 -95.26635742 49.79541016 C-95.4541809 32.32610314 -91.71887107 15.5467749 -79.19921875 2.59375 C-57.41532038 -16.65892074 -23.28953438 -16.07758784 0 0 Z M-61.98046875 15.6328125 C-71.77011561 27.22581536 -72.89836334 41.0382885 -71.98046875 55.6328125 C-70.65629021 65.47437674 -67.02760548 74.73571594 -59.10546875 81.0703125 C-50.54594626 86.79823492 -40.98252587 88.69835459 -30.79296875 86.9453125 C-21.60486075 84.73551437 -14.63226568 80.38101138 -9.50390625 72.30859375 C-2.59007541 59.43107842 -2.03070157 44.21017925 -6.078125 30.27734375 C-8.98465579 21.75906954 -13.32428798 14.93701238 -21.30078125 10.27734375 C-34.75794472 4.28436259 -50.86326396 5.48615733 -61.98046875 15.6328125 Z " fill="#231F20" transform="translate(1014.98046875,454.3671875)"/>
<path d="M0 0 C-2.2687515 15.62917702 -9.64318472 30.18587776 -17 44 C-17.34788574 44.66241699 -17.69577148 45.32483398 -18.05419922 46.00732422 C-23.51988824 56.35586219 -29.83450234 65.75589748 -37 75 C-37.67804688 75.88042969 -38.35609375 76.76085937 -39.0546875 77.66796875 C-41.00099458 80.14325141 -42.99112696 82.57524197 -45 85 C-45.81082031 85.99644531 -46.62164062 86.99289062 -47.45703125 88.01953125 C-53.67364078 95.54201977 -60.35364224 102.53481531 -67.25 109.4375 C-68.08950195 110.27780762 -68.92900391 111.11811523 -69.79394531 111.98388672 C-76.99821852 119.12411561 -84.48815364 125.72230159 -92.5 131.9375 C-93.13164062 132.43056641 -93.76328125 132.92363281 -94.4140625 133.43164062 C-95.94108314 134.62317946 -97.47029929 135.81190381 -99 137 C-99 133.5176066 -98.23974682 132.36632193 -96.47265625 129.4140625 C-95.93181396 128.49351074 -95.39097168 127.57295898 -94.83374023 126.62451172 C-94.24923096 125.63467285 -93.66472168 124.64483398 -93.0625 123.625 C-79.83980145 100.73116163 -66.30591102 72.88279356 -72.125 45.75 C-74.54131108 37.19129067 -79.43153809 29.82139055 -87 25 C-102.57062419 17.17119454 -118.87865557 16.66718769 -136 17 C-133.77103108 14.77103108 -132.67819231 14.46183603 -129.6875 13.66796875 C-128.34268555 13.31001221 -128.34268555 13.31001221 -126.97070312 12.94482422 C-125.99037109 12.69490723 -125.01003906 12.44499023 -124 12.1875 C-122.97326172 11.92469238 -121.94652344 11.66188477 -120.88867188 11.39111328 C-81.74852931 1.59425282 -40.32771237 -3.91395475 0 0 Z " fill="#F79B1E" transform="translate(348,547)"/>
<path d="M0 0 C5.52058282 4.38566124 10.97655361 9.17293971 15 15 C13.70602116 18.88193651 11.82046071 19.98388921 8.625 22.5 C4.8161702 25.46118416 4.8161702 25.46118416 1.3359375 28.78125 C0 30 0 30 -3 30 C-4.32421875 28.0234375 -4.32421875 28.0234375 -5.6875 25.375 C-9.84866562 18.08521607 -14.93359934 14.26494994 -23 12 C-34.13034486 10.36473606 -43.76547495 10.46167466 -53.40625 16.5859375 C-56.34952371 19.19737152 -56.95377344 21.57625657 -57.375 25.4375 C-56.91450198 29.81223121 -56.29840106 31.09426573 -53 34 C-45.46384734 37.83485951 -37.35696774 39.38727866 -29.125 41 C2.83276381 47.30153089 2.83276381 47.30153089 11.84375 59.875 C15.87456117 67.28297729 16.25330743 75.64905272 14.34765625 83.78515625 C10.81095503 93.60595321 4.90024313 99.238778 -4.4777832 103.69238281 C-21.08069982 111.07145686 -41.67870398 111.44438947 -59 106 C-69.22930031 101.99298109 -78.78999315 96.31501028 -85 87 C-84.68022757 83.67894078 -83.40729183 82.04591439 -81.05859375 79.765625 C-80.47529297 79.19199219 -79.89199219 78.61835937 -79.29101562 78.02734375 C-78.67935547 77.44082031 -78.06769531 76.85429688 -77.4375 76.25 C-76.82197266 75.64800781 -76.20644531 75.04601562 -75.57226562 74.42578125 C-74.05485187 72.94365619 -72.52829404 71.4709033 -71 70 C-68.40698936 72.52551362 -66.07502986 75.1163208 -63.8125 77.9375 C-56.92880571 85.85301143 -48.02088495 88.68182179 -37.8125 89.75 C-29.40848718 90.29219438 -20.17895746 89.84579629 -13 85 C-9.99175207 82.15008091 -9.09858728 80.61343198 -8.4375 76.5 C-9.15847556 72.01392985 -10.55849518 70.89810933 -14 68 C-17.21146619 66.49841878 -17.21146619 66.49841878 -20.875 65.5 C-21.55409424 65.29697266 -22.23318848 65.09394531 -22.93286133 64.88476562 C-29.11483109 63.10420493 -35.39266544 61.81074172 -41.6875 60.5 C-55.5204644 57.59786929 -69.75476969 54.41458496 -78 41.8125 C-82.14397352 34.7476007 -81.77099663 26.42239389 -80.64453125 18.5 C-78.38070233 9.99164971 -71.57801586 3.41348783 -64.4375 -1.375 C-45.89699119 -11.41539862 -17.73588781 -11.79480224 0 0 Z " fill="#231F20" transform="translate(1392,451)"/>
<path d="M0 0 C7.9101826 6.94998703 7.9101826 6.94998703 10.140625 10.75 C10.16796875 12.7109375 10.16796875 12.7109375 9.140625 14.75 C6.70703125 17.0390625 6.70703125 17.0390625 3.703125 19.375 C-0.21111224 22.41283872 -0.21111224 22.41283872 -3.859375 25.75 C-5.80078125 25.64453125 -5.80078125 25.64453125 -7.859375 24.75 C-9.38671875 22.82421875 -9.38671875 22.82421875 -10.796875 20.4375 C-15.2534915 13.40718747 -20.52174417 10.0547542 -28.671875 8.0625 C-38.23879732 7.12456644 -47.56249607 7.39891333 -55.921875 12.6875 C-58.75726052 15.70581362 -59.70838882 17.56727496 -60.234375 21.6875 C-59.73901808 25.73291486 -58.89373547 27.00462624 -55.859375 29.75 C-47.28424386 34.14500862 -37.83474194 35.57918505 -28.46679688 37.37304688 C-16.79359895 39.72047901 -2.02800828 42.95023772 5.765625 52.8046875 C10.78517815 60.59069891 11.12408768 68.71429598 10.140625 77.75 C8.03093804 85.64331657 2.8027925 91.23821538 -3.859375 95.75 C-21.31982852 104.88709485 -42.7967493 105.50675227 -61.515625 99.9375 C-73.08968475 95.82708626 -82.23745903 89.99383195 -87.859375 78.75 C-83.239375 74.46 -78.619375 70.17 -73.859375 65.75 C-70.28777661 66.9405328 -69.86720547 67.90067619 -67.796875 70.9375 C-62.18911218 78.3671942 -54.97214567 82.13456839 -45.859375 83.75 C-42.91522162 84.05046474 -40.00526083 84.13105639 -37.046875 84.125 C-36.26368896 84.12411377 -35.48050293 84.12322754 -34.67358398 84.12231445 C-27.65717679 83.97986034 -20.74431856 82.88783903 -15.1328125 78.35546875 C-12.89062409 75.52866067 -12.66813469 72.23330565 -12.859375 68.75 C-15.21267659 63.81927287 -19.0845627 62.61345606 -23.90112305 60.74462891 C-29.19787489 58.96374527 -34.64046823 57.92370143 -40.109375 56.8125 C-71.15120745 50.17011397 -71.15120745 50.17011397 -80.859375 36.75 C-84.304623 29.92015978 -83.93727689 20.31978765 -82.20703125 12.984375 C-78.76511544 4.53469327 -72.12319591 -2.4380233 -63.859375 -6.25 C-43.03458361 -13.88833736 -18.17697712 -14.30319511 0 0 Z " fill="#231F20" transform="translate(661.859375,611.25)"/>
<path d="M0 0 C29.04 0 58.08 0 88 0 C88 5.94 88 11.88 88 18 C66.22 18 44.44 18 22 18 C22 27.57 22 37.14 22 47 C39.16 47 56.32 47 74 47 C74 52.94 74 58.88 74 65 C56.84 65 39.68 65 22 65 C22 74.9 22 84.8 22 95 C44.44 95 66.88 95 90 95 C90 100.94 90 106.88 90 113 C60.3 113 30.6 113 0 113 C0 75.71 0 38.42 0 0 Z " fill="#231F20" transform="translate(1199,445)"/>
<path d="M0 0 C28.05 0 56.1 0 85 0 C85 5.94 85 11.88 85 18 C63.88 18 42.76 18 21 18 C21 27.24 21 36.48 21 46 C37.5 46 54 46 71 46 C71 51.94 71 57.88 71 64 C54.5 64 38 64 21 64 C21 73.57 21 83.14 21 93 C43.11 93 65.22 93 88 93 C88 98.94 88 104.88 88 111 C58.96 111 29.92 111 0 111 C0 74.37 0 37.74 0 0 Z " fill="#231F20" transform="translate(700,602)"/>
<path d="M0 0 C8.58 0 17.16 0 26 0 C31.59569153 13.84484518 37.18630896 27.69171328 42.76769924 41.54232979 C45.35948798 47.9735697 47.95354218 54.40387817 50.55297852 60.83203125 C53.06129879 67.03488163 55.56323777 73.24027008 58.06129646 79.44726181 C59.01566446 81.81559333 59.97217176 84.18306393 60.93084526 86.54965591 C62.27263053 89.8630481 63.60679524 93.17941232 64.93920898 96.49658203 C65.53693871 97.96501808 65.53693871 97.96501808 66.14674377 99.46311951 C66.50992706 100.37168198 66.87311035 101.28024445 67.24729919 102.21633911 C67.56347419 102.99986315 67.87964918 103.78338718 68.20540524 104.59065437 C69 107 69 107 70 113 C62.41 113 54.82 113 47 113 C45.741875 109.865 44.48375 106.73 43.1875 103.5 C42.79715576 102.52869141 42.40681152 101.55738281 42.00463867 100.55664062 C41.52861206 99.36844727 41.52861206 99.36844727 41.04296875 98.15625 C40.56380005 96.96225586 40.56380005 96.96225586 40.07495117 95.74414062 C38.6778831 92.17769839 37.34491322 88.58643526 36 85 C20.49 84.67 4.98 84.34 -11 84 C-11.99 87.3 -12.98 90.6 -14 94 C-15.1759874 97.20700493 -16.37090174 100.38739952 -17.625 103.5625 C-17.93695312 104.36751953 -18.24890625 105.17253906 -18.5703125 106.00195312 C-20.8667324 111.8667324 -20.8667324 111.8667324 -22 113 C-23.70772358 113.08713831 -25.41898649 113.10700007 -27.12890625 113.09765625 C-28.68061523 113.09282227 -28.68061523 113.09282227 -30.26367188 113.08789062 C-31.35228516 113.07951172 -32.44089844 113.07113281 -33.5625 113.0625 C-35.2012207 113.05573242 -35.2012207 113.05573242 -36.87304688 113.04882812 C-39.58208759 113.03699825 -42.29100822 113.01967721 -45 113 C-40.26707269 100.15244195 -35.22972859 87.43500486 -30.13671875 74.7265625 C-29.2955942 72.62434859 -28.45459819 70.52208325 -27.61372375 68.41976929 C-25.86586634 64.05090161 -24.1168644 59.68249463 -22.36694336 55.31445312 C-20.12116463 49.70857328 -17.87770739 44.10176794 -15.63501263 38.4946537 C-13.90542956 34.17083162 -12.17495042 29.84736864 -10.44416237 25.52402878 C-9.61582585 23.45477953 -8.78769874 21.38544645 -7.95978355 19.31602859 C-6.80958829 16.44161946 -5.65826136 13.56766635 -4.5065918 10.69384766 C-4.16428528 9.83785477 -3.82197876 8.98186188 -3.46929932 8.09992981 C-3.15685776 7.3209584 -2.8444162 6.541987 -2.52250671 5.7394104 C-2.25099635 5.06147242 -1.97948599 4.38353443 -1.69974804 3.68505287 C-1.18095915 2.43576504 -0.60495653 1.20991306 0 0 Z M12 21 C11.68289063 21.99773437 11.36578125 22.99546875 11.0390625 24.0234375 C7.49057263 34.99954409 3.47458595 45.75489478 -0.74755859 56.48974609 C-1.16859863 57.56562988 -1.58963867 58.64151367 -2.0234375 59.75 C-2.40419434 60.71421875 -2.78495117 61.6784375 -3.17724609 62.671875 C-4.1110676 64.90274696 -4.1110676 64.90274696 -4 67 C6.89 67 17.78 67 29 67 C28.34210382 63.71051909 27.75885101 61.05795824 26.63305664 57.99169922 C26.35929703 57.24097137 26.08553741 56.49024353 25.80348206 55.71676636 C25.50868454 54.92078033 25.21388702 54.12479431 24.91015625 53.3046875 C24.60556992 52.47542755 24.30098358 51.6461676 23.98716736 50.79177856 C23.34426891 49.04459285 22.6994996 47.29809455 22.05297852 45.55224609 C21.06410775 42.87934572 20.0834425 40.20353412 19.10351562 37.52734375 C18.47705372 35.82794384 17.85011678 34.12871895 17.22265625 32.4296875 C16.92988297 31.62965302 16.63710968 30.82961853 16.33546448 30.00534058 C15.92009682 28.88870529 15.92009682 28.88870529 15.49633789 27.74951172 C15.25508682 27.09618866 15.01383575 26.4428656 14.76527405 25.76974487 C13.93974623 23.71581612 13.93974623 23.71581612 12 21 Z " fill="#231F20" transform="translate(1524,445)"/>
<path d="M0 0 C30.36 0 60.72 0 92 0 C92 18.40904809 92 18.40904809 85.41015625 25.03686523 C84.94480469 25.43591064 84.47945312 25.83495605 84 26.24609375 C81.19786017 28.75722852 78.88589967 31.46918608 76.5625 34.4375 C72.71889943 39.21621628 68.63039836 43.69157687 64.44165039 48.16381836 C61.32446055 51.51099327 58.36426202 54.93005023 55.5 58.5 C51.68563032 63.25414192 47.62350389 67.70068145 43.45898438 72.14428711 C39.40617302 76.49429596 35.63562129 81.00248455 31.9375 85.66015625 C30.0909081 87.8902138 28.04732244 89.95267756 26 92 C59.66 92.495 59.66 92.495 94 93 C94 98.94 94 104.88 94 111 C62.65 111 31.3 111 -1 111 C-1 93 -1 93 1.52734375 88.56640625 C3.1640625 87 3.1640625 87 4.9375 85.5625 C6.14717497 84.4312057 7.35419553 83.29706664 8.55859375 82.16015625 C9.15140137 81.62664551 9.74420898 81.09313477 10.35498047 80.54345703 C12.65654287 78.38399168 14.56324239 75.98701397 16.5 73.5 C19.98562736 69.1429658 23.67793667 65.05878467 27.5 61 C32.12620527 56.08693945 36.47270878 51.04878041 40.69140625 45.77734375 C43.78361154 42.05727952 47.06543054 38.53168572 50.40063477 35.02905273 C55.25132818 29.88310701 59.47375658 24.53207529 64 19 C32.32 18.505 32.32 18.505 0 18 C0 12.06 0 6.12 0 0 Z " fill="#231F20" transform="translate(807,602)"/>
<path d="M0 0 C35.64089159 -1.27481522 74.17165428 4.99637236 104 26 C110.71762176 32.77834348 110.24801396 38.90342385 110.25097656 47.90454102 C109.85528283 85.14471717 109.85528283 85.14471717 101 94 C100.26136719 92.99582031 99.52273438 91.99164062 98.76171875 90.95703125 C85.06699128 72.44307156 70.39715052 55.06261439 52 41 C51.4220166 40.55092285 50.8440332 40.1018457 50.24853516 39.63916016 C34.01793971 27.04058607 16.66262865 16.4544039 -1 6 C-0.67 4.02 -0.34 2.04 0 0 Z " fill="#9A998A" transform="translate(389,539)"/>
<path d="M0 0 C18.61185367 2.62755581 46.48814124 8.10895829 59.8125 22.5625 C61.02734375 24.30078125 61.02734375 24.30078125 62 26 C62.61875 27.0725 63.2375 28.145 63.875 29.25 C69.3643369 47.54778965 55.69501253 67.4131663 47.33203125 83.01953125 C36.49662684 102.76930331 36.49662684 102.76930331 30 109 C26.85819556 108.18278061 24.4466221 107.16419583 22 105 C20.73452859 100.97562371 20.84605837 96.94364925 20.8125 92.75 C20.7092724 90.20654497 20.59422262 87.66354847 20.46875 85.12109375 C20.43820023 84.45990036 20.40765045 83.79870697 20.37617493 83.11747742 C19.06925285 57.31775256 13.53005294 30.33197947 2.3828125 7.01171875 C1.2854213 4.62163791 0.49394217 2.56469975 0 0 Z " fill="#9A998A" transform="translate(348,406)"/>
<path d="M0 0 C1.06734375 0.22236328 1.06734375 0.22236328 2.15625 0.44921875 C8.86004946 2.91845155 12.01806833 6.90141473 15.375 12.875 C15.79700684 13.60936279 16.21901367 14.34372559 16.65380859 15.1003418 C19.83683316 20.787561 22.57607513 26.62940479 25.125 32.625 C25.46772949 33.43074463 25.81045898 34.23648926 26.16357422 35.06665039 C27.71232101 38.85870169 28.5 41.1121128 28.5 45.3125 C27.26894531 45.02375 26.03789062 44.735 24.76953125 44.4375 C-4.69663925 38.12432314 -34.59479979 40.85987582 -64.08457947 45.55030823 C-67.5924766 46.09668746 -70.94901417 46.43200433 -74.5 46.3125 C-75.16 44.3325 -75.82 42.3525 -76.5 40.3125 C-58.60109797 25.38372145 -39.09449739 12.72537263 -17.75 3.25 C-17.10667725 2.96286133 -16.46335449 2.67572266 -15.80053711 2.37988281 C-10.49570383 0.11129017 -5.71109264 -1.29327279 0 0 Z " fill="#9A998A" transform="translate(462.5,479.6875)"/>
<path d="M0 0 C10.89 0 21.78 0 33 0 C33 37.29 33 74.58 33 113 C19.33333333 113 19.33333333 113 15 109 C10.81270303 104.23514482 10.85918182 99.76684118 10.88647461 93.6730957 C10.88632858 92.82409698 10.88618256 91.97509827 10.8860321 91.10037231 C10.88672917 88.29214937 10.89451194 85.48399262 10.90234375 82.67578125 C10.90420866 80.72950781 10.90563222 78.78323391 10.90663147 76.83695984 C10.91045088 71.71266383 10.92027627 66.58839614 10.93133545 61.46411133 C10.94156194 56.23584374 10.94613175 51.00757158 10.95117188 45.77929688 C10.96189903 35.51951881 10.97896857 25.25976176 11 15 C9.741875 15.061875 8.48375 15.12375 7.1875 15.1875 C5.04296875 15.29296875 5.04296875 15.29296875 3 15 C2.01 14.01 1.02 13.02 0 12 C0 8.04 0 4.08 0 0 Z " fill="#231F20" transform="translate(1424,445)"/>
<path d="M0 0 C10.89 0 21.78 0 33 0 C33 37.29 33 74.58 33 113 C19.33333333 113 19.33333333 113 15 109 C10.5583091 104.09882384 10.857582 98.99827333 10.88647461 92.65136719 C10.88632858 91.81197601 10.88618256 90.97258484 10.8860321 90.10775757 C10.88672793 87.33743696 10.89450493 84.56718385 10.90234375 81.796875 C10.9042091 79.87445106 10.90563245 77.95202664 10.90663147 76.02960205 C10.91044743 70.97272425 10.92026988 65.91587523 10.93133545 60.85900879 C10.94156935 55.69767649 10.94613333 50.53633953 10.95117188 45.375 C10.96189295 35.24998737 10.97895835 25.12499608 11 15 C9.741875 15.061875 8.48375 15.12375 7.1875 15.1875 C5.04296875 15.29296875 5.04296875 15.29296875 3 15 C2.01 14.01 1.02 13.02 0 12 C0 8.04 0 4.08 0 0 Z " fill="#231F20" transform="translate(589,445)"/>
<path d="" fill="#D1D2D4" transform="translate(0,0)"/>
</svg>
