<?xml version="1.0" encoding="UTF-8"?>
<svg version="1.1" xmlns="http://www.w3.org/2000/svg" width="1579" height="433">
<path d="M0 0 C521.07 0 1042.14 0 1579 0 C1579 142.89 1579 285.78 1579 433 C1057.93 433 536.86 433 0 433 C0 290.11 0 147.22 0 0 Z " fill="#FEFEFE" transform="translate(0,0)"/>
<path d="M0 0 C1.23022636 -0.00839905 1.23022636 -0.00839905 2.48530579 -0.01696777 C5.14273552 -0.02885343 7.79960216 -0.02260447 10.45703125 -0.01171875 C11.36936523 -0.00989594 12.28169922 -0.00807312 13.22167969 -0.00619507 C57.08796208 0.14110705 137.50168552 6.53293552 170.26953125 39.30078125 C171.65428861 44.84147307 171.46543418 50.56546457 171.5078125 56.2421875 C171.51756104 57.3098233 171.52730957 58.37745911 171.53735352 59.47744751 C171.70143749 82.12000976 171.60492156 104.01301357 167.26953125 126.30078125 C166.87877368 128.48411872 166.48946347 130.6677157 166.1015625 132.8515625 C160.29626904 164.51182484 150.88194081 208.99370457 127.26953125 232.30078125 C126.73328125 232.84992188 126.19703125 233.3990625 125.64453125 233.96484375 C115.32532934 243.63909554 101.31471887 249.39464011 87.26953125 250.30078125 C86.48835937 250.36394531 85.7071875 250.42710937 84.90234375 250.4921875 C68.09443751 251.26525144 51.44974476 243.74413563 37.01953125 235.92578125 C36.19163086 235.47968506 35.36373047 235.03358887 34.51074219 234.57397461 C19.22626305 226.07530348 19.22626305 226.07530348 17.01953125 219.67578125 C17.30971485 215.75830264 17.90549512 214.4170107 20.26953125 211.30078125 C22.76743456 209.39294537 25.43146043 207.81968379 28.14453125 206.23828125 C32.77516244 203.48436307 37.10343158 200.73882467 41.26953125 197.30078125 C43.51182298 195.68405642 45.7605701 194.08117403 48.01953125 192.48828125 C49.87459969 191.16257477 51.72767223 189.83411412 53.58056641 188.50537109 C55.02545274 187.47486095 56.48048886 186.45860722 57.9375 185.4453125 C75.3542055 172.82494586 84.999138 146.4155075 91.70703125 126.67578125 C91.95412842 125.95406738 92.20122559 125.23235352 92.45581055 124.48876953 C96.51536911 112.02787855 98.01089141 94.67770617 93.08203125 82.36328125 C87.66055341 71.71664649 79.38287351 65.82472109 68.109375 62.11328125 C63.14468913 60.69284843 58.42053863 59.77300216 53.26953125 59.30078125 C52.49657715 59.22746582 51.72362305 59.15415039 50.92724609 59.07861328 C33.50750907 57.65303284 19.36068664 61.98416362 3.26953125 68.30078125 C1.50246826 68.98237305 1.50246826 68.98237305 -0.30029297 69.67773438 C-14.93741441 75.35143935 -29.10356425 81.5845979 -42.92578125 89.01953125 C-46.70466857 90.74581961 -48.76939705 90.45309302 -52.73046875 89.30078125 C-55.66796875 87.61328125 -55.66796875 87.61328125 -57.73046875 84.30078125 C-60.86644115 66.47525391 -55.51079412 38.92809 -45.59375 23.76953125 C-34.38974312 8.92480935 -18.78547075 -0.01883243 0 0 Z " fill="#F4D549" transform="translate(112.73046875,145.69921875)"/>
<path d="M0 0 C16.09457365 -0.60764214 30.62986977 3.50568588 43.23046875 13.87890625 C53.03559613 23.1402788 58.85264865 36.23040586 59.62573242 49.72753906 C59.65046152 52.63227741 59.66612323 55.53655493 59.66796875 58.44140625 C59.68021484 59.44042969 59.69246094 60.43945312 59.70507812 61.46875 C59.73340846 75.91722267 55.31021523 90.44326009 45.515625 101.38671875 C33.6668984 112.6569361 19.1386206 116.77070384 3.16796875 116.62890625 C1.97042969 116.62060791 0.77289062 116.61230957 -0.4609375 116.60375977 C-15.40345748 116.31726631 -27.03336999 112.24129762 -38.26953125 102.00390625 C-49.01955133 90.45472401 -53.23703828 76.1600856 -53.04101562 60.70068359 C-53.01954249 58.69245778 -53.04094363 56.68780657 -53.06640625 54.6796875 C-53.00403049 38.88302526 -47.82157421 26.03668008 -37.03125 14.55078125 C-26.61399106 4.76536227 -14.01391899 0.76213322 0 0 Z " fill="#252223" transform="translate(904.51953125,83.80859375)"/>
<path d="M0 0 C72.86013986 0 72.86013986 0 89 16 C101.87089574 31.31661298 103.36629425 48.67376784 102 68 C100.79610847 77.31086625 97.4593946 85.40556656 92 93 C91.2575 94.051875 90.515 95.10375 89.75 96.1875 C79.73423894 106.43089199 67.71445401 109.95234355 54 113 C36.18 113 18.36 113 0 113 C0 75.71 0 38.42 0 0 Z " fill="#272324" transform="translate(725,86)"/>
<path d="M0 0 C1.23022636 -0.00839905 1.23022636 -0.00839905 2.48530579 -0.01696777 C5.14273552 -0.02885343 7.79960216 -0.02260447 10.45703125 -0.01171875 C11.36936523 -0.00989594 12.28169922 -0.00807312 13.22167969 -0.00619507 C57.08796208 0.14110705 137.50168552 6.53293552 170.26953125 39.30078125 C170.26953125 40.62078125 170.26953125 41.94078125 170.26953125 43.30078125 C169.23699219 43.22859375 168.20445312 43.15640625 167.140625 43.08203125 C94.84897068 38.34834884 20.91612836 54.67913977 -42.92578125 89.01953125 C-46.70466857 90.74581961 -48.76939705 90.45309302 -52.73046875 89.30078125 C-55.66796875 87.61328125 -55.66796875 87.61328125 -57.73046875 84.30078125 C-60.86644115 66.47525391 -55.51079412 38.92809 -45.59375 23.76953125 C-34.38974312 8.92480935 -18.78547075 -0.01883243 0 0 Z " fill="#7E2521" transform="translate(112.73046875,145.69921875)"/>
<path d="M0 0 C3.12908459 2.11227254 5.35505179 4.89584005 7.73828125 7.78125 C8.26421875 8.40789551 8.79015625 9.03454102 9.33203125 9.68017578 C10.42178174 10.97866445 11.50917122 12.27913811 12.59423828 13.58154297 C14.0422096 15.30936302 15.50741883 17.01960853 16.984375 18.72265625 C31.66394585 35.69632444 44.7671177 54.15047177 56.17578125 73.46875 C56.62566406 74.2225293 57.07554687 74.97630859 57.5390625 75.75292969 C80.31729772 114.05221833 80.31729772 114.05221833 77.17578125 127.46875 C74.89838381 134.20185719 71.5891723 138.83998484 66.48828125 143.71875 C65.50903687 144.67418701 65.50903687 144.67418701 64.51000977 145.64892578 C50.35314371 159.17015006 19.22869601 186.46875 -1.82421875 186.46875 C-0.8627633 181.31990305 0.22897442 176.23592895 1.54492188 171.16503906 C6.89998823 149.89984312 8.55343956 128.8761744 8.55078125 107.03125 C8.55259399 106.07481598 8.55440674 105.11838196 8.55627441 104.13296509 C8.5522523 85.38730777 7.34116578 66.78485169 3.86328125 48.34375 C3.64816895 47.17287842 3.43305664 46.00200684 3.21142578 44.7956543 C0.83006115 32.14087166 -1.92275955 19.56409746 -6.25146484 7.4206543 C-6.82421875 5.46875 -6.82421875 5.46875 -6.82421875 2.46875 C-2.76130861 -0.80414983 -2.76130861 -0.80414983 0 0 Z " fill="#999A8D" transform="translate(312.82421875,197.53125)"/>
<path d="M0 0 C0.92554688 0.40089844 1.85109375 0.80179688 2.8046875 1.21484375 C9.62168837 4.54609772 14.76020083 9.10769657 20.17578125 14.31640625 C22.13872787 16.18161279 24.06937478 17.9162076 26.15625 19.625 C45.71894797 35.96307742 63.54699785 64.83658251 71 89 C71 89.66 71 90.32 71 91 C69.78377829 91.73033661 68.55122244 92.43351354 67.3125 93.125 C66.62800781 93.51945312 65.94351563 93.91390625 65.23828125 94.3203125 C62.12928489 95.26440564 60.83708803 94.497596 58 93 C56.40453345 91.90053342 54.84434608 90.74900236 53.3125 89.5625 C12.92831843 59.71799831 -37.89662196 40.9283471 -87.51074219 34.19067383 C-88.47270508 34.05814209 -89.43466797 33.92561035 -90.42578125 33.7890625 C-91.68515503 33.62978271 -91.68515503 33.62978271 -92.9699707 33.46728516 C-95 33 -95 33 -97 31 C-70.49139049 10.19055406 -35.04829327 -15.57159548 0 0 Z " fill="#999A8D" transform="translate(214,60)"/>
<path d="M0 0 C8.25 0 16.5 0 25 0 C31.625699 7.8810946 31.625699 7.8810946 33.02734375 11.50390625 C34.88303224 15.90212286 37.26050917 19.60786138 40 23.5 C43.71916583 28.99789731 47.26341351 34.58712838 50.74902344 40.23510742 C53.50194152 44.66865977 56.33043741 49.04667116 59.19921875 53.40625 C59.57192398 53.97272751 59.94462921 54.53920502 60.32862854 55.12284851 C62.19177421 57.95284564 64.06014365 60.77908381 65.93579102 63.60083008 C66.63244873 64.65681396 67.32910645 65.71279785 68.046875 66.80078125 C68.66401367 67.73059814 69.28115234 68.66041504 69.91699219 69.6184082 C72.80111571 74.30054544 75.36672349 79.1723264 78 84 C78.33 56.28 78.66 28.56 79 0 C85.27 0 91.54 0 98 0 C98 37.29 98 74.58 98 113 C90.08 113 82.16 113 74 113 C67.80799054 106.25140542 67.80799054 106.25140542 66.328125 102.7890625 C63.67021079 97.09112886 60.17959464 92.0262339 56.6875 86.8125 C55.39282337 84.83008749 54.10115865 82.84570473 52.8125 80.859375 C50.37862284 77.11741204 47.94142392 73.37766821 45.5 69.640625 C40.4462493 61.8984585 35.41677526 54.14257424 30.5 46.3125 C30.11481201 45.70156494 29.72962402 45.09062988 29.33276367 44.46118164 C26.37308842 39.71778801 23.7256922 34.90624597 21 30 C20.67 57.39 20.34 84.78 20 113 C13.4 113 6.8 113 0 113 C0 75.71 0 38.42 0 0 Z " fill="#242021" transform="translate(590,86)"/>
<path d="M0 0 C24 0 24 0 28.875 4.5 C29.97492038 6.6376831 31.01314467 8.80782518 32 11 C33.06032575 12.73380298 34.12288185 14.46664194 35.22290039 16.17553711 C36.49785469 18.1562651 37.73383021 20.15815411 38.96875 22.1640625 C42.69317806 28.15230844 46.57035918 34.04088655 50.4375 39.9375 C51.18153051 41.07328908 51.92550855 42.20911254 52.66943359 43.3449707 C55.34764995 47.43302968 58.02717288 51.52022617 60.71191406 55.60400391 C62.1657854 57.81695589 63.61474157 60.03304602 65.0625 62.25 C65.45429443 62.84288818 65.84608887 63.43577637 66.24975586 64.04663086 C70.48225741 70.54454035 74.12965834 77.2269021 78 84 C78.33 56.28 78.66 28.56 79 0 C85.27 0 91.54 0 98 0 C98 37.29 98 74.58 98 113 C90.08 113 82.16 113 74 113 C65.55450873 102.87936997 65.55450873 102.87936997 63.20703125 98.10546875 C60.07309503 92.02456685 56.43387107 86.42467158 52.625 80.75 C51.37130491 78.82922966 50.12134967 76.90601351 48.875 74.98046875 C48.24464844 74.00770996 47.61429688 73.03495117 46.96484375 72.03271484 C45.99224609 70.531521 45.99224609 70.531521 45 69 C44.31550781 67.94635254 43.63101562 66.89270508 42.92578125 65.80712891 C40.8200533 62.56242011 38.72160749 59.31310798 36.625 56.0625 C35.9954541 55.09344727 35.3659082 54.12439453 34.71728516 53.12597656 C29.4341746 44.90473202 24.81884755 36.5668401 20 28 C19.67 56.05 19.34 84.1 19 113 C12.73 113 6.46 113 0 113 C0 75.71 0 38.42 0 0 Z " fill="#231F20" transform="translate(995,86)"/>
<path d="M0 0 C8.25 0 16.5 0 25 0 C29.50036783 10.12582763 29.50036783 10.12582763 31.03753662 13.94114685 C31.38801559 14.80887222 31.73849457 15.6765976 32.09959412 16.57061768 C32.46859329 17.48889343 32.83759247 18.40716919 33.21777344 19.35327148 C33.61825394 20.34623734 34.01873444 21.33920319 34.43135071 22.36225891 C35.74243064 25.61450661 37.05106305 28.86773165 38.359375 32.12109375 C39.2728448 34.39032203 40.18635865 36.65953258 41.09991455 38.9287262 C43.0074056 43.66807485 44.91353059 48.40797033 46.81884766 53.14819336 C49.26572097 59.23508571 51.71729914 65.32007122 54.17004013 71.4046011 C56.0544972 76.08149003 57.93583977 80.75962701 59.81629181 85.43812752 C60.71947111 87.68375534 61.62378211 89.92892832 62.52922821 92.17364311 C63.78935387 95.29862396 65.04513576 98.42531532 66.29980469 101.55249023 C66.67690079 102.48493561 67.05399689 103.41738098 67.44252014 104.37808228 C67.78171982 105.22606888 68.12091949 106.07405548 68.47039795 106.94773865 C68.76755077 107.68638877 69.0647036 108.42503889 69.37086105 109.18607235 C70 111 70 111 70 113 C62.41 113 54.82 113 47 113 C44.99498638 107.6684865 42.994118 102.33557921 41 97 C40.57460937 95.86433594 40.14921875 94.72867188 39.7109375 93.55859375 C39.35257813 92.59050781 38.99421875 91.62242187 38.625 90.625 C38.30789063 89.77164063 37.99078125 88.91828125 37.6640625 88.0390625 C37 86 37 86 37 84 C20.83 84 4.66 84 -12 84 C-12.33 85.98 -12.66 87.96 -13 90 C-13.63630059 91.89088234 -14.32725019 93.76409204 -15.06640625 95.6171875 C-15.46923828 96.63554687 -15.87207031 97.65390625 -16.28710938 98.703125 C-16.91842773 100.27320313 -16.91842773 100.27320313 -17.5625 101.875 C-17.98724609 102.94492188 -18.41199219 104.01484375 -18.84960938 105.1171875 C-19.89445026 107.74689939 -20.94651593 110.3737387 -22 113 C-29.26 113 -36.52 113 -44 113 C-43.31377115 109.56885574 -42.73202905 107.01914433 -41.47076416 103.87963867 C-41.15687744 103.09220779 -40.84299072 102.30477692 -40.51959229 101.4934845 C-40.17571472 100.6435643 -39.83183716 99.7936441 -39.47753906 98.91796875 C-39.11478882 98.01153122 -38.75203857 97.10509369 -38.3782959 96.17118835 C-37.17810163 93.17499204 -35.97185255 90.1812719 -34.765625 87.1875 C-33.92666058 85.09602726 -33.08810471 83.0043906 -32.24993896 80.91259766 C-30.03950851 75.39890309 -27.82406934 69.88723521 -25.60742188 64.3760376 C-22.49833075 56.64343159 -19.3959283 48.90813924 -16.29290771 41.1730957 C-14.64191767 37.05762325 -12.98901725 32.94292658 -11.33453369 28.82885742 C-7.48329565 19.24568447 -3.67158422 9.65375022 0 0 Z " fill="#252122" transform="translate(1455,86)"/>
<path d="M0 0 C-1.15121961 6.80184878 -2.8735442 13.00053478 -5.5 19.375 C-5.85255859 20.23512695 -6.20511719 21.09525391 -6.56835938 21.98144531 C-15.79217396 44.09123473 -27.65811239 65.26249039 -43.61865234 83.27392578 C-45.85934236 85.8389806 -47.98580174 88.46366147 -50.10546875 91.12890625 C-55.02103465 97.15435705 -60.35703361 102.65320906 -65.875 108.125 C-66.79152344 109.04925781 -67.70804687 109.97351563 -68.65234375 110.92578125 C-74.04347557 116.30174814 -79.60673482 121.26894717 -85.54980469 126.02636719 C-88.53951289 128.43457774 -91.36555886 130.96045038 -94.1875 133.5625 C-95.10917969 134.40941406 -96.03085938 135.25632812 -96.98046875 136.12890625 C-97.64691406 136.74636719 -98.31335938 137.36382812 -99 138 C-99.33 137.34 -99.66 136.68 -100 136 C-99.13891602 134.20678711 -99.13891602 134.20678711 -97.75390625 132.02734375 C-97.25020508 131.21934326 -96.74650391 130.41134277 -96.22753906 129.57885742 C-95.67807617 128.70720947 -95.12861328 127.83556152 -94.5625 126.9375 C-86.66970836 114.05367836 -80.60566691 101.18161963 -75.5625 86.9375 C-75.21993164 85.97352295 -74.87736328 85.0095459 -74.52441406 84.01635742 C-70.03470057 70.8870347 -67.91957273 53.22406123 -73.1875 40.0625 C-78.61225116 29.40943715 -86.88470672 23.54380768 -98.15234375 19.80859375 C-109.84244093 16.48918344 -121.93201452 16.41719005 -134 16 C-111.89715156 3.95011992 -78.71344095 1.91781814 -54 0 C-52.97519531 -0.08459473 -52.97519531 -0.08459473 -51.9296875 -0.17089844 C-34.69400369 -1.55532361 -17.21526309 -1.67080543 0 0 Z " fill="#EAA042" transform="translate(279,188)"/>
<path d="M0 0 C4.14239965 3.33347611 7.02420547 7.101424 9.9453125 11.52734375 C8.37803104 15.68404674 5.33744239 18.08824711 2.0078125 20.83984375 C1.46962891 21.30712891 0.93144531 21.77441406 0.37695312 22.25585938 C-1.20703125 23.578125 -1.20703125 23.578125 -4.0546875 25.52734375 C-7.79926723 24.27915051 -8.1567802 23.08044843 -10.1796875 19.77734375 C-14.73025421 13.07124544 -20.6391329 9.459198 -28.6328125 7.8125 C-38.28046839 6.67656632 -47.47836722 6.50455856 -56.0546875 11.52734375 C-58.92453778 13.90721959 -60.80956839 15.74497764 -61.328125 19.515625 C-61.51343886 23.75646147 -61.53192789 25.86209957 -58.9921875 29.40234375 C-53.57985964 33.31764475 -48.14900025 34.9017778 -41.64453125 36.140625 C-40.22712907 36.42210103 -38.80981414 36.70401669 -37.39257812 36.98632812 C-35.2046184 37.41321743 -33.01598426 37.83535253 -30.82543945 38.2487793 C-17.77494784 40.73211919 -2.96298535 43.80148387 5.9453125 54.52734375 C10.20707909 61.30117804 11.71772163 67.56049532 10.9453125 75.52734375 C8.63347305 85.58245268 3.70962823 92.38617122 -4.9921875 97.83984375 C-15.89920968 103.93056327 -25.86377901 104.72768283 -38.1796875 104.77734375 C-39.43523437 104.79796875 -40.69078125 104.81859375 -41.984375 104.83984375 C-57.69583434 104.90503653 -71.67075489 101.02872126 -83.2421875 89.90234375 C-86.37869566 86.67854872 -87.29615753 84.92366866 -89.0546875 80.52734375 C-84.4346875 76.23734375 -79.8146875 71.94734375 -75.0546875 67.52734375 C-72.12606625 70.455965 -69.6597165 72.92743991 -67.1796875 76.08984375 C-61.64769544 82.61475746 -53.92635132 85.49320611 -45.515625 86.36328125 C-35.05486709 87.06066511 -24.98637023 87.52215048 -15.9921875 81.46484375 C-13.22668718 78.69934343 -12.86255941 76.96623282 -12.7421875 73.15234375 C-12.70480469 72.38148438 -12.66742187 71.610625 -12.62890625 70.81640625 C-13.22966486 67.58663979 -14.49489129 66.54734768 -17.0546875 64.52734375 C-24.70407662 60.8783784 -32.72369027 59.05304032 -41.01171875 57.61425781 C-55.33203552 55.11926054 -71.90478186 51.88863688 -81.0546875 39.52734375 C-85.56285869 32.67761498 -86.03128724 25.54941304 -85.0546875 17.52734375 C-84.1493901 14.20622463 -82.84410087 11.4595289 -81.0546875 8.52734375 C-80.63058594 7.82867187 -80.20648437 7.13 -79.76953125 6.41015625 C-73.04246161 -3.52117219 -61.6952187 -8.59221007 -50.21875 -11.08984375 C-32.12539297 -13.27891658 -15.10298493 -10.82476297 0 0 Z " fill="#262223" transform="translate(1327.0546875,95.47265625)"/>
<path d="M0 0 C4.64317828 3.80724065 8.54200268 8.20663674 12.375 12.8125 C9.09029745 16.20669263 5.66802848 19.43157735 2.1875 22.625 C1.32769531 23.41519531 0.46789062 24.20539063 -0.41796875 25.01953125 C-2.625 26.8125 -2.625 26.8125 -4.625 26.8125 C-4.91632813 26.22082031 -5.20765625 25.62914062 -5.5078125 25.01953125 C-9.49234781 17.33865029 -14.24770537 12.59208981 -22.44921875 9.54296875 C-31.38254826 7.48819308 -42.75202896 6.99327626 -50.921875 11.625 C-55.75844008 14.83026384 -55.75844008 14.83026384 -58.09765625 19.95703125 C-58.35956857 24.00659866 -58.02815709 26.20776437 -55.75 29.625 C-48.28838078 34.84813346 -39.75904907 36.61454029 -30.9375 38.25 C0.61482729 44.5081728 0.61482729 44.5081728 8.875 56.5 C13.06857977 63.24467413 13.08081759 69.66235848 12.01953125 77.40625 C10.09074191 85.58742357 4.91127428 91.64098516 -1.91015625 96.41015625 C-4.43467446 97.78831561 -6.9221639 98.8279489 -9.625 99.8125 C-10.67945313 100.20308594 -11.73390625 100.59367187 -12.8203125 100.99609375 C-29.92067305 106.42686759 -49.48363033 105.61909682 -65.8125 98.1875 C-73.29601501 94.21746551 -79.72063018 88.73815962 -84.625 81.8125 C-81.61211066 75.07780618 -75.79973811 70.57758421 -69.625 66.8125 C-68.7896875 68.1428125 -68.7896875 68.1428125 -67.9375 69.5 C-62.81065265 77.10988492 -55.54540156 82.54986167 -46.625 84.8125 C-42.70586039 85.17352731 -38.80897151 85.228252 -34.875 85.25 C-33.32425781 85.29930664 -33.32425781 85.29930664 -31.7421875 85.34960938 C-24.40968334 85.40040128 -18.69649128 84.07757836 -12.625 79.8125 C-10.601185 76.7767775 -10.28725747 75.85477513 -10.1875 72.375 C-10.12755859 71.23224609 -10.12755859 71.23224609 -10.06640625 70.06640625 C-10.91392639 66.64669213 -12.71514945 65.69742343 -15.625 63.8125 C-23.19580027 60.52125308 -31.00168709 58.6020179 -39.125 57.3125 C-52.4768826 55.16812513 -68.07545953 51.55798358 -76.6875 40.25 C-81.08991886 32.43925687 -82.20158365 24.00554715 -79.97265625 15.25 C-75.83492383 5.02109925 -67.7462522 -1.77014798 -58.00390625 -6.4453125 C-40.49256465 -13.09636655 -15.27637472 -11.33916474 0 0 Z " fill="#252223" transform="translate(590.625,251.1875)"/>
<path d="M0 0 C28.71 0 57.42 0 87 0 C87 5.61 87 11.22 87 17 C65.55 17.33 44.1 17.66 22 18 C22 27.57 22 37.14 22 47 C38.83 47.33 55.66 47.66 73 48 C73 53.28 73 58.56 73 64 C47.755 64.495 47.755 64.495 22 65 C22 74.9 22 84.8 22 95 C55.66 95.495 55.66 95.495 90 96 C90 101.61 90 107.22 90 113 C60.3 113 30.6 113 0 113 C0 75.71 0 38.42 0 0 Z " fill="#232021" transform="translate(1130,86)"/>
<path d="M0 0 C28.05 0 56.1 0 85 0 C85 5.61 85 11.22 85 17 C63.88 17 42.76 17 21 17 C21 26.57 21 36.14 21 46 C37.5 46 54 46 71 46 C71 51.61 71 57.22 71 63 C54.5 63 38 63 21 63 C21 72.9 21 82.8 21 93 C43.11 93 65.22 93 88 93 C88 98.61 88 104.22 88 110 C58.96 110 29.92 110 0 110 C0 73.7 0 37.4 0 0 Z " fill="#252223" transform="translate(631,243)"/>
<path d="M0 0 C30.03 0 60.06 0 91 0 C91 16 91 16 87.0625 21.3125 C85.38226664 22.88281155 83.69465877 24.44526718 82 26 C80.53260811 27.74614375 79.09528875 29.5179561 77.6875 31.3125 C73.274613 36.76871405 68.55528972 41.88615451 63.7734375 47.015625 C59.46894486 51.63353761 55.35687595 56.40761607 51.26171875 61.2109375 C50.23715504 62.41160843 49.21240999 63.61212465 48.1875 64.8125 C47.6709082 65.41795654 47.15431641 66.02341309 46.62207031 66.6472168 C42.69599399 71.23111322 38.66635576 75.69773248 34.546875 80.109375 C30.87664767 84.27497043 27.46819719 88.66475351 24 93 C46.77 93 69.54 93 93 93 C93 98.61 93 104.22 93 110 C61.65 110 30.3 110 -2 110 C-2 94 -2 94 0.30859375 89.98046875 C1.80859375 88.53125 1.80859375 88.53125 3.4375 87.1875 C4.55349036 86.13176264 5.66674685 85.07312838 6.77734375 84.01171875 C7.32890137 83.50688965 7.88045898 83.00206055 8.44873047 82.48193359 C10.69896803 80.33227323 12.58280874 77.9468021 14.5 75.5 C18.31994011 70.73891522 22.38938819 66.28726975 26.55859375 61.8359375 C29.67568554 58.48883131 32.63581113 55.06985859 35.5 51.5 C39.83180629 46.10493217 44.4871648 41.06767737 49.203125 36.01171875 C54.65254392 30.16654216 59.7997508 24.0669574 65 18 C43.55 17.67 22.1 17.34 0 17 C0 11.39 0 5.78 0 0 Z " fill="#262223" transform="translate(739,243)"/>
<path d="M0 0 C7.45090303 5.94666412 12.21067012 13.82517489 13.51171875 23.28125 C14.65589856 38.37352656 15.02297178 53.32078319 4.7578125 65.52734375 C-1.05593092 72.04048487 -8.26730274 74.95311218 -16.86328125 75.9453125 C-27.57832533 76.3511023 -36.55907414 74.22188442 -44.6796875 66.96484375 C-52.85168594 58.02672046 -54.43368439 46.95670858 -54.4921875 35.40234375 C-54.5128125 34.4071875 -54.5334375 33.41203125 -54.5546875 32.38671875 C-54.61157497 21.49276863 -52.10363569 11.55833796 -44.3515625 3.58203125 C-32.03415671 -7.65407556 -14.1637582 -9.30267742 0 0 Z " fill="#FDFDFD" transform="translate(928.2421875,107.47265625)"/>
<path d="M0 0 C37.8 0 37.8 0 49 10 C56.15281819 18.31358254 58.56265523 27.46380422 58.4375 38.25 C58.42992676 39.1680542 58.42235352 40.0861084 58.41455078 41.03198242 C58.17484378 50.98157281 56.38959852 60.4174363 49.8359375 68.28515625 C35.54299057 81.63537689 19.80193054 78 0 78 C0 52.26 0 26.52 0 0 Z " fill="#FDFDFD" transform="translate(747,103)"/>
<path d="M0 0 C33.19947588 -0.90544025 78.38185357 4.83203542 104.296875 28.05859375 C110.3527529 34.99401582 109.47996506 42.28730096 109 51 C108.05294931 62.04103268 106.42878204 73.01342575 103.9375 83.8125 C103.77540039 84.51753662 103.61330078 85.22257324 103.44628906 85.94897461 C102.69500185 88.98498261 102.25159823 90.74840177 100 93 C99.443125 92.24976563 98.88625 91.49953125 98.3125 90.7265625 C72.74115459 56.42985936 42.40070348 31.18718608 5.2734375 9.890625 C3.14265483 8.65995816 1.04738071 7.36492047 -1 6 C-0.67 4.02 -0.34 2.04 0 0 Z " fill="#999A8D" transform="translate(321,180)"/>
<path d="M0 0 C6.23453304 0.61335105 11.99233388 1.9335058 18 3.6875 C18.91555664 3.95296631 19.83111328 4.21843262 20.77441406 4.49194336 C54.49227659 14.45403911 54.49227659 14.45403911 62.9375 29.4375 C65.59885713 38.3608739 63.28332929 45.06947659 59.625 53.375 C59.17237793 54.42647217 58.71975586 55.47794434 58.25341797 56.5612793 C50.4578984 74.38944623 40.78145117 90.82782325 30 107 C24.25 105.125 24.25 105.125 22 104 C21.56961014 101.21947777 21.26658094 98.51400428 21.03515625 95.71484375 C20.95631699 94.86636368 20.87747772 94.01788361 20.79624939 93.14369202 C20.54274816 90.40902113 20.30142608 87.67348027 20.0625 84.9375 C18.96477574 72.45554984 17.57909871 60.27139429 15 48 C14.69727173 46.49360962 14.69727173 46.49360962 14.38842773 44.95678711 C11.30087347 29.80225314 7.15533224 15.7602543 0 2 C0 1.34 0 0.68 0 0 Z " fill="#999A8D" transform="translate(280,48)"/>
<path d="M0 0 C9.12816535 6.95574172 14.58010599 21.32783259 18.9140625 31.67578125 C19.22126221 32.39862305 19.52846191 33.12146484 19.8449707 33.86621094 C21.91368028 38.98942792 21.91368028 38.98942792 20.7890625 42.36328125 C20.01304687 42.16992188 19.23703125 41.9765625 18.4375 41.77734375 C-9.16274911 35.12430041 -37.28561361 36.15704324 -65.109375 41.45703125 C-68.92392265 42.17602885 -72.50258325 42.58947227 -76.3984375 42.48828125 C-77.78095703 42.46121094 -77.78095703 42.46121094 -79.19140625 42.43359375 C-80.19107422 42.39878906 -80.19107422 42.39878906 -81.2109375 42.36328125 C-81.5409375 40.71328125 -81.8709375 39.06328125 -82.2109375 37.36328125 C-74.97465236 31.2556801 -67.606788 25.6582456 -59.7109375 20.42578125 C-58.67356445 19.73701904 -57.63619141 19.04825684 -56.56738281 18.33862305 C-47.42436364 12.35332401 -38.0593566 7.08696824 -28.2109375 2.36328125 C-27.05980469 1.79738281 -25.90867187 1.23148437 -24.72265625 0.6484375 C-16.02389132 -3.34172024 -8.69832734 -4.49722031 0 0 Z " fill="#9A9B8D" transform="translate(400.2109375,123.63671875)"/>
<path d="M0 0 C10.56 0 21.12 0 32 0 C32 37.29 32 74.58 32 113 C19.57142857 113 19.57142857 113 15 109 C14.1028125 108.2265625 14.1028125 108.2265625 13.1875 107.4375 C10.14743734 103.75742414 10.86658129 99.07468158 10.88647461 94.58129883 C10.88632858 93.72254654 10.88618256 92.86379425 10.8860321 91.97901917 C10.88672921 89.1383309 10.89451217 86.29770807 10.90234375 83.45703125 C10.90420865 81.48833756 10.90563221 79.51964341 10.90663147 77.5509491 C10.91045099 72.36746949 10.92027648 67.18401786 10.93133545 62.00054932 C10.9415617 56.7119586 10.9461317 51.42336337 10.95117188 46.13476562 C10.96189923 35.75649812 10.9789689 25.37825138 11 15 C10.06027344 15.03480469 10.06027344 15.03480469 9.1015625 15.0703125 C7.87566406 15.09738281 7.87566406 15.09738281 6.625 15.125 C5.81289062 15.14820312 5.00078125 15.17140625 4.1640625 15.1953125 C2 15 2 15 0 13 C0 8.71 0 4.42 0 0 Z " fill="#252223" transform="translate(1356,86)"/>
<path d="M0 0 C10.56 0 21.12 0 32 0 C32 37.29 32 74.58 32 113 C19.31578947 113 19.31578947 113 15 109 C10.88786548 103.98277675 10.43446661 100.44953532 10.54589844 94.24072266 C10.54531433 93.38153229 10.54473022 92.52234192 10.54412842 91.63711548 C10.54690324 88.81234582 10.57796637 85.98864659 10.609375 83.1640625 C10.61683954 81.19966203 10.62253147 79.2352541 10.62652588 77.27084351 C10.64176541 72.1118701 10.68103289 66.95335038 10.7253418 61.79455566 C10.76633069 56.52585995 10.78454463 51.25709061 10.8046875 45.98828125 C10.84752865 35.65865533 10.91575974 25.32936546 11 15 C10.06027344 15.03480469 10.06027344 15.03480469 9.1015625 15.0703125 C7.87566406 15.09738281 7.87566406 15.09738281 6.625 15.125 C5.81289063 15.14820312 5.00078125 15.17140625 4.1640625 15.1953125 C2 15 2 15 0 13 C0 8.71 0 4.42 0 0 Z " fill="#231F20" transform="translate(521,86)"/>
<path d="M0 0 C2.51696955 2.51696955 2.89274138 4.46080769 3.9375 7.875 C6.91852835 17.30701748 10.66216092 26.45116574 14.34155273 35.62646484 C15.0484021 37.39884521 15.0484021 37.39884521 15.76953125 39.20703125 C16.41305542 40.80768433 16.41305542 40.80768433 17.06958008 42.44067383 C18 45 18 45 18 47 C6.45 47 -5.1 47 -17 47 C-13.31215738 36.31278262 -9.5890553 25.6788002 -5.39819336 15.17822266 C-3.41145745 10.17559917 -1.6557191 5.12154193 0 0 Z " fill="#FAFAFA" transform="translate(1467,106)"/>
<path d="M0 0 C0.66 0.33 1.32 0.66 2 1 C4.46608206 14.16794762 3.18078958 28.6754232 3 42 C2.98743164 43.01320312 2.97486328 44.02640625 2.96191406 45.0703125 C2.74617614 58.13786696 1.14946274 70.31425707 -2 83 C-2.97766236 79.87005145 -2.97082363 77.6028384 -2.44799805 74.37890625 C-2.31013382 73.45867676 -2.17226959 72.53844727 -2.03022766 71.59033203 C-1.87974472 70.59114746 -1.72926178 69.59196289 -1.57421875 68.5625 C0.37843144 54.35854352 0.33800779 40.31054552 0.1875 26 C0.17240009 23.4596435 0.15872123 20.91927815 0.14648438 18.37890625 C0.11395902 12.2524056 0.06419516 6.12624661 0 0 Z " fill="#FDFAD3" transform="translate(283,188)"/>
<path d="M0 0 C1.34629486 0.00498505 1.34629486 0.00498505 2.7197876 0.0100708 C45.85811127 0.19707418 45.85811127 0.19707418 53.625 5.375 C51.64590602 5.40186553 49.66671029 5.42133375 47.6875 5.4375 C46.58535156 5.44910156 45.48320312 5.46070313 44.34765625 5.47265625 C41.625 5.375 41.625 5.375 40.625 4.375 C27.68873229 2.19240311 14.58068968 2.15861033 1.5 2.125 C0.69308716 2.11991425 -0.11382568 2.11482849 -0.94519043 2.10958862 C-15.02942058 1.65026113 -15.02942058 1.65026113 -28.375 5.375 C-29.035 4.715 -29.695 4.055 -30.375 3.375 C-20.38992706 -0.34714579 -10.48777481 -0.09119388 0 0 Z " fill="#793635" transform="translate(123.375,145.625)"/>
<path d="M0 0 C0.33 0 0.66 0 1 0 C1.33784575 5.74337777 1.22475005 9.10315733 -2 14 C-2.49394757 15.55160932 -2.94800206 17.11614757 -3.375 18.6875 C-4.69485045 23.38420186 -6.60861804 27.48391357 -8.9140625 31.7734375 C-10.08242423 33.93630588 -10.08242423 33.93630588 -10.4609375 36.2265625 C-10.72777344 37.10441406 -10.72777344 37.10441406 -11 38 C-12.485 38.495 -12.485 38.495 -14 39 C-14 39.99 -14 40.98 -14 42 C-14.66 42 -15.32 42 -16 42 C-14.63247145 37.57721254 -12.8716596 33.57937938 -10.8125 29.4375 C-6.23464821 19.979866 -3.14691307 10.00449487 0 0 Z " fill="#E1A75A" transform="translate(206,266)"/>
<path d="M0 0 C0.33 0 0.66 0 1 0 C1.05133913 7.09428767 1.0859972 14.18852624 1.10986328 21.28295898 C1.11982844 23.68890167 1.13340543 26.09483255 1.15087891 28.50073242 C1.24742051 42.15001094 1.11365668 55.49475844 -1 69 C-1.33 69 -1.66 69 -2 69 C-2.02888514 65.85418577 -2.04675923 62.70840531 -2.0625 59.5625 C-2.07087891 58.66466797 -2.07925781 57.76683594 -2.08789062 56.84179688 C-2.09111328 55.98779297 -2.09433594 55.13378906 -2.09765625 54.25390625 C-2.10551147 53.06776733 -2.10551147 53.06776733 -2.11352539 51.85766602 C-2 50 -2 50 -1 49 C-0.8774645 47.46617321 -0.82222062 45.92689481 -0.79467773 44.38842773 C-0.77473251 43.40748642 -0.75478729 42.4265451 -0.73423767 41.4158783 C-0.71752518 40.3492244 -0.70081268 39.2825705 -0.68359375 38.18359375 C-0.66281265 37.0974025 -0.64203156 36.01121124 -0.62062073 34.8921051 C-0.55500558 31.40730373 -0.49618489 27.92242432 -0.4375 24.4375 C-0.39432615 22.08137199 -0.35071224 19.72525201 -0.30664062 17.36914062 C-0.19931208 11.57951063 -0.09756835 5.78980225 0 0 Z " fill="#EFD86E" transform="translate(283,191)"/>
<path d="M0 0 C0.94101563 0.00322266 1.88203125 0.00644531 2.8515625 0.00976562 C3.83640625 0.01814453 4.82125 0.02652344 5.8359375 0.03515625 C6.82851562 0.03966797 7.82109375 0.04417969 8.84375 0.04882812 C11.2995391 0.0606348 13.75520854 0.07710225 16.2109375 0.09765625 C16.2109375 0.42765625 16.2109375 0.75765625 16.2109375 1.09765625 C15.39117432 1.17806152 14.57141113 1.2584668 13.72680664 1.34130859 C-8.55200372 3.52679017 -8.55200372 3.52679017 -30.7890625 6.09765625 C-30.7890625 5.43765625 -30.7890625 4.77765625 -30.7890625 4.09765625 C-29.83193359 4.00677734 -29.83193359 4.00677734 -28.85546875 3.9140625 C-27.61603516 3.78837891 -27.61603516 3.78837891 -26.3515625 3.66015625 C-25.11599609 3.53833984 -25.11599609 3.53833984 -23.85546875 3.4140625 C-21.80244225 3.3083481 -21.80244225 3.3083481 -20.7890625 2.09765625 C-18.48010981 1.88748609 -16.16632281 1.72925684 -13.8515625 1.59765625 C-8.98308788 1.32030673 -4.79518213 -0.02888664 0 0 Z " fill="#812B12" transform="translate(219.7890625,186.90234375)"/>
<path d="M0 0 C0.33 0.99 0.66 1.98 1 3 C-6.92 10.92 -14.84 18.84 -23 27 C-23.66 26.67 -24.32 26.34 -25 26 C-24.34926514 25.35450195 -23.69853027 24.70900391 -23.02807617 24.04394531 C-20.60514299 21.63809789 -18.18451052 19.22998209 -15.76538086 16.8203125 C-14.71973904 15.77968613 -13.67319971 14.73996076 -12.62573242 13.70117188 C-11.11658231 12.20420968 -9.61073502 10.70399132 -8.10546875 9.203125 C-7.19949951 8.30239258 -6.29353027 7.40166016 -5.36010742 6.47363281 C-3.3798624 4.39813446 -1.64996986 2.34004409 0 0 Z " fill="#FACC4F" transform="translate(227,280)"/>
<path d="M0 0 C0 0.66 0 1.32 0 2 C5.94 2 11.88 2 18 2 C18 2.66 18 3.32 18 4 C18.99 4.33 19.98 4.66 21 5 C10.44 4.34 -0.12 3.68 -11 3 C-6.75707862 0.87853931 -4.7245591 0 0 0 Z " fill="#DEA05D" transform="translate(156,201)"/>
<path d="M0 0 C0.33 0 0.66 0 1 0 C1.33227933 5.64874855 1.34980391 9.23297135 -2 14 C-2.71143088 15.98451771 -3.38991336 17.98202112 -4 20 C-4.66 20 -5.32 20 -6 20 C-4 13.33333333 -2 6.66666667 0 0 Z " fill="#E3AD66" transform="translate(206,266)"/>
<path d="M0 0 C0.99 0.99 1.98 1.98 3 3 C1.83709195 6.48872415 0.86032391 7.09976864 -2.0625 9.1875 C-2.79597656 9.71730469 -3.52945313 10.24710937 -4.28515625 10.79296875 C-4.85105469 11.19128906 -5.41695312 11.58960938 -6 12 C-4.43358249 7.69235185 -2.31663844 3.93828536 0 0 Z " fill="#E2AE56" transform="translate(185,314)"/>
<path d="M0 0 C0.33 0 0.66 0 1 0 C0.56615452 7.03128878 -0.74321997 13.329015 -3 20 C-3.33 20 -3.66 20 -4 20 C-3.76102237 18.12231864 -3.52178162 16.24467042 -3.28125 14.3671875 C-3.09157954 12.77079449 -2.92540453 11.1714574 -2.78125 9.5703125 C-2.7090625 8.78398437 -2.636875 7.99765625 -2.5625 7.1875 C-2.50191406 6.45917969 -2.44132812 5.73085938 -2.37890625 4.98046875 C-2 3 -2 3 0 0 Z " fill="#EFD76F" transform="translate(276,284)"/>
<path d="M0 0 C3.96 0 7.92 0 12 0 C12 0.66 12 1.32 12 2 C14.64 2 17.28 2 20 2 C20 2.33 20 2.66 20 3 C12.96517526 3.23668569 6.8165735 2.7879537 0 1 C0 0.67 0 0.34 0 0 Z " fill="#F2DE7D" transform="translate(180,393)"/>
<path d="M0 0 C-2.47999067 2.47999067 -3.95418162 2.54722102 -7.375 3.125 C-8.33148438 3.29257813 -9.28796875 3.46015625 -10.2734375 3.6328125 C-13 4 -13 4 -17 4 C-17 3.34 -17 2.68 -17 2 C-14.73139163 1.4695592 -12.46001511 0.95094566 -10.1875 0.4375 C-8.29064453 0.00244141 -8.29064453 0.00244141 -6.35546875 -0.44140625 C-3 -1 -3 -1 0 0 Z " fill="#E1934E" transform="translate(185,195)"/>
<path d="M0 0 C1.69911188 5.19996655 -0.89923729 8.74053969 -3.1875 13.4375 C-3.455625 13.953125 -3.72375 14.46875 -4 15 C-4.66 15 -5.32 15 -6 15 C-4.40109514 9.80355921 -2.25861997 4.93387858 0 0 Z " fill="#FEF9D3" transform="translate(257,347)"/>
<path d="M0 0 C0 0.99 0 1.98 0 3 C-0.61875 3.2475 -1.2375 3.495 -1.875 3.75 C-4.16137472 4.81105913 -4.16137472 4.81105913 -4.875 7.0625 C-5.24625 7.701875 -5.6175 8.34125 -6 9 C-9.125 9.75 -9.125 9.75 -12 10 C-8.40945767 6.11024581 -4.26101118 3.10267805 0 0 Z " fill="#FEFAD6" transform="translate(239,378)"/>
<path d="M0 0 C0.99 0.33 1.98 0.66 3 1 C-0.3 3.31 -3.6 5.62 -7 8 C-7 5 -7 5 -5.75 3.3125 C-4 2 -4 2 0 2 C0 1.34 0 0.68 0 0 Z " fill="#FEFBD8" transform="translate(148,345)"/>
<path d="M0 0 C5.94 2.475 5.94 2.475 12 5 C8.52128379 6.15957207 7.65780355 5.77456651 4.3125 4.5625 C3.50425781 4.27503906 2.69601562 3.98757812 1.86328125 3.69140625 C1.24839844 3.46324219 0.63351562 3.23507813 0 3 C0 2.01 0 1.02 0 0 Z " fill="#7D3837" transform="translate(265,176)"/>
<path d="M0 0 C1.38076179 3.83544942 0.85712183 7.07152497 0 11 C-1.5625 12.9375 -1.5625 12.9375 -3 14 C-2.48594831 9.03083364 -1.76615118 4.70973649 0 0 Z " fill="#FDFAD2" transform="translate(275,294)"/>
<path d="M0 0 C0 0.66 0 1.32 0 2 C-2.31 2.33 -4.62 2.66 -7 3 C-7 3.66 -7 4.32 -7 5 C-7.99 5 -8.98 5 -10 5 C-10 4.01 -10 3.02 -10 2 C-8.7090864 1.66376204 -7.41723903 1.33110751 -6.125 1 C-5.40570313 0.814375 -4.68640625 0.62875 -3.9453125 0.4375 C-2 0 -2 0 0 0 Z " fill="#E1954C" transform="translate(166,198)"/>
<path d="M0 0 C1.98 0 3.96 0 6 0 C2.58983503 2.86453858 -0.90694544 4.34703566 -5 6 C-5.33 5.34 -5.66 4.68 -6 4 C-4.02 3.34 -2.04 2.68 0 2 C0 1.34 0 0.68 0 0 Z " fill="#7F3B3B" transform="translate(77,227)"/>
<path d="M0 0 C3.82669043 3.42388092 5.72278474 6.00724943 7 11 C6.01 10.67 5.02 10.34 4 10 C2.9375 7.75 2.9375 7.75 2 5 C1.62875 4.071875 1.2575 3.14375 0.875 2.1875 C0.58625 1.465625 0.2975 0.74375 0 0 Z " fill="#FEF1D4" transform="translate(199,218)"/>
<path d="M0 0 C0.33 0.99 0.66 1.98 1 3 C-1.31 4.98 -3.62 6.96 -6 9 C-4.25618453 5.51236907 -2.47193291 2.96631949 0 0 Z " fill="#F8CA4D" transform="translate(238,267)"/>
</svg>
